<?xml version="1.0" encoding="utf-8"?>
<!-- Generator: Adobe Illustrator 16.0.0, SVG Export Plug-In . SVG Version: 6.00 Build 0)  -->
<!DOCTYPE svg PUBLIC "-//W3C//DTD SVG 1.1//EN" "http://www.w3.org/Graphics/SVG/1.1/DTD/svg11.dtd">
<svg version="1.1" id="Ebene_1" xmlns="http://www.w3.org/2000/svg" xmlns:xlink="http://www.w3.org/1999/xlink" x="0px" y="0px"
	 width="1000px" height="1000px" viewBox="0 0 1000 1000" enable-background="new 0 0 1000 1000" xml:space="preserve">
<symbol  id="Gras_1" viewBox="-14.452 -22.034 28.904 44.068">
	<g>
		<g>
			<path fill="#69AF2B" d="M-0.964-18.702c0,0,4.742,15.564-2.099,40.736C9.278-0.305,1.45-13.917-0.964-18.702z"/>
			<path fill="#009735" d="M-3.319-15.591c0,0,1.334,11.636-11.133,20.479C-3.683-6.546-5.485-16.092-4.136-22.034L-3.319-15.591z"
				/>
			<path fill="#007D2B" d="M5.265-17.786c0,0-2.416,11.582,5.65,16.967C9.265-4.786,6.765-10.204,5.265-17.786z"/>
			<path fill="#006A2C" d="M7.676-18.071c0,0-0.155,7.889,4.923,9.729C13.614-7.521,11.116-12.985,7.676-18.071z"/>
			<path fill="#007D2B" d="M-3.735-6.955c0,0,3.833,7.919-7.065,21.659C-8.069,8.64-4.819,0.798-3.735-6.955z"/>
		</g>
		<path fill="#009735" d="M5.171-3.722c0,0,0.531,19.357,9.281,22.275C9.413,10.333,8.088,5.825,5.171-3.722z"/>
	</g>
</symbol>
<g>
	<path d="M32.651,207.59l-16.729,47.566H6.046l49.179-135.847h9.271l48.978,135.847h-9.876L86.466,207.59H32.651z M42.326,109.433
		c-4.434,0-7.256-3.628-7.256-8.062c0-4.232,3.225-8.062,7.458-8.062c4.434,0,7.458,3.628,7.458,8.062s-2.62,8.062-7.458,8.062
		H42.326z M83.442,199.527l-16.527-45.349c-3.225-9.473-5.039-16.326-7.054-23.985h-0.403c-2.015,7.86-4.232,14.915-7.054,23.582
		l-16.729,45.752H83.442z M76.993,109.433c-4.434,0-7.256-3.628-7.256-8.062c0-4.232,3.225-8.062,7.458-8.062
		c4.434,0,7.458,3.628,7.458,8.062s-2.62,8.062-7.458,8.062H76.993z"/>
	<path d="M150.764,137.046v21.365h27.613v7.86h-27.613v62.885c0,12.295,3.83,19.954,14.109,19.954c5.039,0,8.667-0.605,11.085-1.411
		l1.209,7.256c-3.225,1.209-7.659,2.217-13.504,2.217c-7.055,0-12.899-2.217-16.527-6.651c-4.434-5.039-6.047-13.303-6.047-23.179
		v-61.071h-16.326v-7.86h16.326v-17.737L150.764,137.046z"/>
	<path d="M203.772,111.852h9.675v63.892h0.403c2.822-5.442,7.458-10.48,13.101-13.907c5.644-3.426,12.295-5.644,19.551-5.644
		c9.07,0,33.659,4.636,33.659,40.714v58.249h-9.674v-57.241c0-17.333-6.853-33.256-26.605-33.256
		c-13.706,0-24.993,9.876-29.226,21.768c-1.007,3.023-1.209,5.643-1.209,9.674v59.055h-9.675V111.852z"/>
	<path d="M320.272,139.062c-4.434,0-7.457-3.83-7.457-8.264s3.426-8.465,7.86-8.465s7.659,3.83,7.659,8.465
		c0,4.434-3.023,8.264-7.861,8.264H320.272z M315.838,255.156v-96.746h9.675v96.746H315.838z"/>
	<path d="M398.275,257.374c-24.993,0-44.342-19.551-44.342-49.784c0-33.055,21.768-51.396,45.752-51.396
		c26.807,0,44.947,20.156,44.947,49.784c0,35.876-24.792,51.396-46.156,51.396H398.275z M398.879,249.311
		c20.155,0,36.078-18.14,36.078-42.931c0-17.737-9.876-42.125-35.473-42.125c-24.791,0-35.876,21.969-35.876,42.729
		c0,24.187,15.318,42.326,35.07,42.326H398.879z"/>
	<path d="M473.054,189.249c0-12.093-0.201-21.566-0.806-30.838h9.271l0.605,18.341h0.403c7.055-12.698,18.946-20.559,35.876-20.559
		c24.791,0,41.521,20.559,41.521,48.978c0,34.466-20.559,52.203-43.939,52.203c-13.906,0-26.202-6.249-32.853-17.938h-0.403v55.629
		h-9.675V189.249z M482.729,217.063c0,2.62,0.202,5.241,0.806,7.659c4.031,14.915,16.931,24.589,31.845,24.589
		c22.171,0,34.869-17.938,34.869-43.737c0-21.768-12.094-41.318-34.063-41.318c-14.108,0-27.814,9.674-32.047,25.597
		c-0.604,2.62-1.411,5.644-1.411,8.264V217.063z"/>
	<path d="M592.979,139.062c-4.434,0-7.457-3.83-7.457-8.264s3.426-8.465,7.86-8.465s7.659,3.83,7.659,8.465
		c0,4.434-3.023,8.264-7.86,8.264H592.979z M588.545,255.156v-96.746h9.674v96.746H588.545z"/>
	<path d="M636.112,205.776c0,30.837,16.931,43.132,36.885,43.132c14.108,0,21.364-2.822,26.807-5.442l2.419,7.458
		c-3.629,2.015-13.505,6.248-30.435,6.248c-27.814,0-45.148-20.155-45.148-48.574c0-32.249,18.543-52.404,43.535-52.404
		c31.645,0,37.69,29.83,37.69,43.737c0,2.62,0,4.031-0.402,5.845H636.112z M697.788,198.117
		c0.201-13.504-5.442-33.861-28.822-33.861c-21.364,0-30.435,18.946-32.248,33.861H697.788z"/>
	<path d="M736.487,181.589c0-8.869-0.202-15.52-0.807-23.179h9.07l0.604,17.333h0.403c5.24-10.884,17.535-19.551,33.256-19.551
		c9.271,0,33.861,4.636,33.861,40.916v58.047h-9.675v-57.241c0-17.737-6.853-33.659-26.807-33.659
		c-13.504,0-25.194,9.674-29.023,22.372c-0.604,2.217-1.21,5.442-1.21,8.465v60.063h-9.674V181.589z"/>
</g>
<g>
	
		<use xlink:href="#Gras_1"  width="28.904" height="44.068" x="-14.452" y="-22.034" transform="matrix(6.0342 0 0 -6.0342 905.5732 132.9736)" overflow="visible"/>
	
		<use xlink:href="#Gras_1"  width="28.904" height="44.068" x="-14.452" y="-22.034" transform="matrix(6.0342 0 0 -6.0342 913.7959 142.5591)" overflow="visible"/>
</g>
<g>
	<path fill="#3AAA35" d="M356.151,40.106c8.223-1.321,18.942-2.056,30.249-2.056c18.795,0,30.982,3.377,40.526,10.572
		c10.278,7.635,16.739,19.823,16.739,37.296c0,18.942-6.901,32.01-16.446,40.086c-10.425,8.663-26.283,12.774-45.666,12.774
		c-11.6,0-19.823-0.734-25.403-1.468V40.106z M378.617,120.865c1.909,0.44,4.993,0.44,7.783,0.44
		c20.263,0.147,33.478-11.012,33.478-34.653c0.147-20.557-11.894-31.423-31.129-31.423c-4.992,0-8.223,0.44-10.132,0.881V120.865z"
		/>
	<path fill="#3AAA35" d="M521.188,95.903h-36.415v23.494h40.674v18.354h-63.14V38.785h61.084v18.354h-38.618v20.557h36.415V95.903z"
		/>
	<path fill="#3AAA35" d="M627.347,133.2c-6.901,2.349-19.97,5.58-33.038,5.58c-18.061,0-31.129-4.552-40.232-13.362
		c-9.104-8.517-14.097-21.438-13.949-35.975c0.146-32.891,24.081-51.686,56.531-51.686c12.774,0,22.612,2.496,27.458,4.845
		l-4.698,17.914c-5.434-2.35-12.188-4.258-23.054-4.258c-18.647,0-32.744,10.572-32.744,32.01c0,20.41,12.774,32.451,31.129,32.451
		c5.14,0,9.251-0.587,11.013-1.469V98.546h-15.271V81.073h36.855V133.2z"/>
	<path fill="#3AAA35" d="M671.832,112.349l-7.048,25.402h-23.2l30.248-98.967h29.367l30.688,98.967h-24.081l-7.635-25.402H671.832z
		 M696.941,95.61l-6.168-20.998c-1.762-5.874-3.523-13.215-4.992-19.089h-0.293c-1.469,5.874-2.938,13.362-4.553,19.089
		l-5.873,20.998H696.941z"/>
	<path fill="#3AAA35" d="M749.062,38.785h60.496v18.354h-38.03v22.613h35.534v18.208h-35.534v39.792h-22.466V38.785z"/>
</g>
<g>
</g>
<g>
</g>
<g>
</g>
<g>
</g>
<g>
</g>
<g>
</g>
<g>
</g>
<g>
</g>
<g>
</g>
<g>
</g>
<g>
</g>
<g>
</g>
<g>
</g>
<g>
</g>
</svg>
